<svg xmlns="http://www.w3.org/2000/svg" width="40" height="40" viewBox="0 0 40 40">
  <path id="quanxianshezhi" d="M28.333,20v-.833l-1.5-.5-.167-.833-.5-1L25.833,16l.667-1.333c-.167-.167-.333-.5-.5-.667a2.3,2.3,0,0,0-.667-.5L24,14.167l-.667-.333-1-.5L21.5,13l-.667-1.333H19.167l-.5,1.5-.833.333c-.333.167-.667.167-1,.5l-.667.167-1.5-.667c-.167.167-.333.5-.5.667a2.3,2.3,0,0,0-.667.5L14.167,16l-.333.833-.5,1L13,18.667l-1.333.5v1.667l1.5.5.167.833.5,1,.333.667L13.5,25.167a7.7,7.7,0,0,0,1.167,1.167L16,25.667l.833.333,1,.5.833.333.5,1.5h1.667l.5-1.5.833-.333,1-.5L24,25.667l1.333.667A7.7,7.7,0,0,0,26.5,25.167l-.667-1.333L26.167,23l.5-1L27,21.167l1.5-.5c-.167-.167-.167-.333-.167-.667ZM20,10a6.252,6.252,0,0,1,1.667.167h.5l.5,1.667c.5.167.833.333,1.333.5l1.5-.667L26,12a7.249,7.249,0,0,1,1.167,1c.333.333.667.833,1,1.167l.167.333L27.5,16a11.483,11.483,0,0,1,.5,1.333l1.667.5.167.5A6.252,6.252,0,0,1,30,20a4.614,4.614,0,0,1-.167,1.5l-.167.5L28,22.5c-.167.5-.333.833-.5,1.333l.833,1.5-.333.5A8.911,8.911,0,0,1,25.833,28l-.333.333L24,27.5a11.483,11.483,0,0,1-1.333.5l-.5,1.667h-.5A3.3,3.3,0,0,1,20,30a6.252,6.252,0,0,1-1.667-.167h-.5l-.5-1.667c-.5-.167-.833-.333-1.333-.5l-1.5.667L14,28a8.911,8.911,0,0,1-2.167-2.167l-.167-.333L12.5,24a11.484,11.484,0,0,1-.5-1.333l-1.667-.5-.167-.5A6.252,6.252,0,0,1,10,20a6.252,6.252,0,0,1,.167-1.667l.167-.5,1.667-.5c.167-.5.333-.833.5-1.333l-.833-1.5L12,14a2.83,2.83,0,0,1,1-1l1.167-1.167.333-.167L16,12.5a11.483,11.483,0,0,1,1.333-.5l.5-1.667h.5A3.3,3.3,0,0,1,20,10Zm0,5.833A4.167,4.167,0,1,0,24.167,20,4.126,4.126,0,0,0,20,15.833ZM20,17.5A2.5,2.5,0,1,1,17.5,20,2.563,2.563,0,0,1,20,17.5ZM20,0A20,20,0,1,1,0,20,20.059,20.059,0,0,1,20,0Zm0,1.667A18.333,18.333,0,1,0,38.333,20,18.281,18.281,0,0,0,20,1.667ZM28.333,20v-.833l-1.5-.5-.167-.833-.5-1-.333-.667.667-1.333c-.167-.333-.5-.5-.667-.667a2.3,2.3,0,0,0-.5-.667l-1.5.667-.667-.333-1-.5-.833-.167-.5-1.5H19.167l-.5,1.5-.833.333a2.369,2.369,0,0,0-1,.333l-.667.333-1.5-.667c-.167.167-.333.5-.5.667a2.3,2.3,0,0,0-.667.5L14.167,16l-.333.833-.5,1-.167.833-1.5.5v1.667l1.5.5.167.833.5,1,.333.667-.667,1.5A7.7,7.7,0,0,0,14.667,26.5L16,25.833l.833.333,1,.5.833.333.5,1.333h1.667l.5-1.5.833-.167,1-.5L24,25.833l1.333.667A7.7,7.7,0,0,0,26.5,25.333l-.667-1.5L26.167,23a3.643,3.643,0,0,0,.5-.833L27,21.333l1.333-.5V20ZM20,10a6.252,6.252,0,0,1,1.667.167h.5l.5,1.667c.5.167.833.333,1.333.5l1.5-.667L26,12a7.249,7.249,0,0,1,1.167,1c.333.333.667.833,1,1.167l.167.333L27.5,16a11.483,11.483,0,0,1,.5,1.333l1.667.5.167.5A6.252,6.252,0,0,1,30,20a4.614,4.614,0,0,1-.167,1.5l-.167.5L28,22.5c-.167.5-.333.833-.5,1.333l.833,1.667L28,26a8.911,8.911,0,0,1-2.167,2.167l-.333.167L24,27.5a11.483,11.483,0,0,1-1.333.5l-.5,1.667h-.5A3.3,3.3,0,0,1,20,30a6.252,6.252,0,0,1-1.667-.167h-.5l-.5-1.667c-.5-.167-.833-.333-1.333-.5l-1.5.667L14,28a13.278,13.278,0,0,1-2.167-2.167l-.167-.333L12.5,24a9.827,9.827,0,0,1-.667-1.333l-1.667-.5v-.5A6.252,6.252,0,0,1,10,20a6.252,6.252,0,0,1,.167-1.667l.167-.5,1.667-.5c.167-.5.333-.833.5-1.333l-.833-1.5L12,14a2.83,2.83,0,0,1,1-1l1.167-1.167.333-.167L16,12.5a11.483,11.483,0,0,1,1.333-.5l.5-1.667h.5A3.3,3.3,0,0,1,20,10Zm0,5.833A4.167,4.167,0,1,0,24.167,20,4.126,4.126,0,0,0,20,15.833ZM20,17.5A2.5,2.5,0,1,1,17.5,20,2.563,2.563,0,0,1,20,17.5Z" fill="#fff"/>
</svg>
