<svg xmlns="http://www.w3.org/2000/svg" width="20" height="23.529" viewBox="0 0 20 23.529">
  <path id="xinwenzhongxin" d="M95.62,25.705a1.757,1.757,0,0,0-3.315,0H89.735a1.755,1.755,0,0,0-3.312,0H83.854a1.756,1.756,0,0,0-3.314,0H78.08V3.353a1.175,1.175,0,0,1,1.175-1.177H96.9A1.177,1.177,0,0,1,98.08,3.353V25.705Zm-14.6-5.295h5.295v-10H81.021v10ZM95.139,6.294H81.021V8.059H95.139V6.294Zm0,4.118h-6.47v1.764h6.47V10.411Zm0,4.118h-6.47V16.3h6.47V14.529Zm0,4.119h-6.47v1.762h6.47V18.648Zm0,0" transform="translate(-78.08 -2.176)" fill="#728dbc"/>
</svg>
