<svg xmlns="http://www.w3.org/2000/svg" width="20.528" height="20.529" viewBox="0 0 20.528 20.529">
  <path id="xitongfenxi" d="M20.534.779V.764a.37.37,0,0,0,0-.043V.712c0-.018,0-.035-.007-.053V.652c0-.018-.007-.035-.011-.053S20.5.562,20.5.544a.784.784,0,0,0-.045-.108l0,0a.79.79,0,0,0-.056-.094l-.007-.01L20.355.287l0,0q-.015-.019-.032-.036l-.01-.01L20.276.2l0,0L20.236.171,20.227.164A.79.79,0,0,0,20.138.1l0,0a.785.785,0,0,0-.1-.048h0a.783.783,0,0,0-.107-.033l-.007,0A.79.79,0,0,0,19.811,0H19.8a.322.322,0,0,0-.054,0H15.008a.79.79,0,0,0,0,1.579h2.831l-5.2,5.2L8.46,2.6a.79.79,0,0,0-1.116,0L.237,9.706a.79.79,0,1,0,1.116,1.117L7.9,4.275l4.179,4.179a.79.79,0,0,0,1.117,0L18.955,2.7V5.527a.79.79,0,1,0,1.579,0ZM2.375,14.212a.79.79,0,0,0-.79.79v4.737a.79.79,0,0,0,1.579,0V15A.79.79,0,0,0,2.375,14.212ZM7.9,10.264a.79.79,0,0,0-.79.79v8.685a.79.79,0,1,0,1.579,0V11.054A.79.79,0,0,0,7.9,10.264Zm5.527,3.158a.79.79,0,0,0-.79.79v5.527a.79.79,0,0,0,1.579,0V14.212a.79.79,0,0,0-.79-.79Zm5.527-3.948a.79.79,0,0,0-.79.79v9.475a.79.79,0,0,0,1.579,0V10.264A.79.79,0,0,0,18.955,9.475Z" transform="translate(-0.006)" fill="#728dbc"/>
</svg>
