<svg xmlns="http://www.w3.org/2000/svg" width="38.844" height="34.339" viewBox="0 0 38.844 34.339">
  <g id="zhanghutngbu" transform="translate(-13.13 -120.832)">
    <path id="路径_118" data-name="路径 118" d="M47.767,135.3a1.351,1.351,0,0,1-1.247-.915,14.237,14.237,0,0,0-13.968-11.058A14.432,14.432,0,0,0,18.5,134.218a1.233,1.233,0,0,1-2.328.166l-2.91-6.319a1.246,1.246,0,0,1,.582-1.663,1.271,1.271,0,0,1,1.663.582l1.663,3.575A16.974,16.974,0,0,1,49.014,133.8a1.239,1.239,0,0,1-.915,1.5ZM32.552,155.171A16.826,16.826,0,0,1,16.089,142.2a1.24,1.24,0,0,1,2.411-.582,14.47,14.47,0,0,0,28.1.083,1.233,1.233,0,0,1,2.328-.166l2.91,6.319a1.246,1.246,0,0,1-.582,1.663,1.271,1.271,0,0,1-1.663-.582l-1.663-3.575A16.911,16.911,0,0,1,32.552,155.171Z" fill="#fff"/>
    <path id="路径_119" data-name="路径 119" d="M355.987,432.874H345.461a1.4,1.4,0,1,1,0-2.794h10.526a1.4,1.4,0,1,1,0,2.794Zm0,7.545H345.461a1.4,1.4,0,1,1,0-2.794h10.526a1.4,1.4,0,1,1,0,2.794Z" transform="translate(-318.206 -297.248)" fill="#fff"/>
  </g>
</svg>
