<svg xmlns="http://www.w3.org/2000/svg" width="20" height="20" viewBox="0 0 20 20">
  <path id="zhuanjiadiaodu" d="M73.764,70.639a4.069,4.069,0,0,0-1.75.5l-1-1a4.713,4.713,0,0,0,.875-2.625,4.208,4.208,0,0,0-1.625-3.375l.5-1h.5a3.125,3.125,0,1,0-3.125-3.125,3.432,3.432,0,0,0,1.375,2.625l-.375.875a3.46,3.46,0,0,0-1.625-.375,4.429,4.429,0,0,0-4.375,4.375,3.46,3.46,0,0,0,.375,1.625l-.875.375a3.432,3.432,0,0,0-2.625-1.375,3.125,3.125,0,1,0,3.125,3.125v-.5l1-.5a4.208,4.208,0,0,0,3.375,1.625,4.713,4.713,0,0,0,2.625-.875l1,1a4.069,4.069,0,0,0-.5,1.75,3.125,3.125,0,1,0,3.125-3.125Zm-2.5-12.5a1.875,1.875,0,1,1-1.875,1.875A1.922,1.922,0,0,1,71.264,58.139Zm-11.25,15a1.875,1.875,0,1,1,1.875-1.875,1.922,1.922,0,0,1-1.875,1.875Zm4.375-5.625a3.125,3.125,0,1,1,3.125,3.125A3.095,3.095,0,0,1,64.389,67.514Zm9.375,8.125a1.875,1.875,0,1,1,1.875-1.875A1.922,1.922,0,0,1,73.764,75.639Z" transform="translate(-56.889 -56.889)" fill="#728dbc"/>
</svg>
