<svg xmlns="http://www.w3.org/2000/svg" width="41.009" height="41.01" viewBox="0 0 41.009 41.01">
  <path id="zhuanjiaguanli" d="M7.323,38.08a1.465,1.465,0,1,1,0,2.93H4.395A4.395,4.395,0,0,1,0,36.615V4.395A4.395,4.395,0,0,1,4.395,0H35.152a4.395,4.395,0,0,1,4.395,4.395v24.9a1.465,1.465,0,1,1-2.93,0V4.395A1.465,1.465,0,0,0,35.152,2.93H4.395A1.465,1.465,0,0,0,2.93,4.395v32.22A1.465,1.465,0,0,0,4.395,38.08Zm0-30.757H20.5a1.465,1.465,0,1,1,0,2.93H7.323a1.465,1.465,0,1,1,0-2.93Zm0,7.323h7.323a1.465,1.465,0,1,1,0,2.93H7.323a1.465,1.465,0,1,1,0-2.93Zm0,7.323h4.395a1.465,1.465,0,1,1,0,2.93H7.323a1.465,1.465,0,1,1,0-2.93Zm33.291,15.08a7.186,7.186,0,0,1,.367,1.823l.027.59a1.5,1.5,0,0,1-.4,1.094,1.44,1.44,0,0,1-1.053.456H11.706a1.44,1.44,0,0,1-1.055-.456,1.5,1.5,0,0,1-.4-1.1l.032-.629a7.2,7.2,0,0,1,.362-1.775,4.846,4.846,0,0,1,1.08-1.884,1.466,1.466,0,0,1,.121-.116,7.209,7.209,0,0,1,2.244-1.305q1.383-.581,3.151-1.23a22.69,22.69,0,0,0,2.383-.989,2.315,2.315,0,0,0,.968-.977,2.93,2.93,0,0,0,.371-1.315,1.465,1.465,0,0,0-.426-.8,1.476,1.476,0,0,1-.15-.169,7.026,7.026,0,0,1-.911-1.595,3.575,3.575,0,0,1-1.522-3.171,4.395,4.395,0,0,1,.346-1.955q-.112-.971-.191-1.946a6.411,6.411,0,0,1,.513-3.028,7.91,7.91,0,0,1,1.643-2.486,8.286,8.286,0,0,1,2.406-1.7,6.78,6.78,0,0,1,5.924,0,8.307,8.307,0,0,1,2.413,1.7,7.9,7.9,0,0,1,1.64,2.474,6.427,6.427,0,0,1,.513,3.046c-.068.793-.132,1.431-.191,1.927a4.395,4.395,0,0,1,.346,1.959,3.575,3.575,0,0,1-1.52,3.176,6.974,6.974,0,0,1-.911,1.595,1.367,1.367,0,0,1-.15.169,1.465,1.465,0,0,0-.424.8,2.944,2.944,0,0,0,.383,1.342,2.292,2.292,0,0,0,.952.95,22.972,22.972,0,0,0,2.406,1c1.157.424,2.208.834,3.13,1.221a7.165,7.165,0,0,1,2.244,1.305,1.139,1.139,0,0,1,.121.116,4.807,4.807,0,0,1,1.08,1.884ZM27.085,33.674v4.374q10.786-.027,10.779-.039a1.823,1.823,0,0,0-.385-.743,4.3,4.3,0,0,0-1.381-.761q-1.5-.627-3.032-1.187a25.6,25.6,0,0,1-2.734-1.139,5.206,5.206,0,0,1-2.2-2.167,5.942,5.942,0,0,1-.75-2.864,1.594,1.594,0,0,1,.011-.187,4.445,4.445,0,0,1,1.239-2.588,4.08,4.08,0,0,0,.592-1.173,1.472,1.472,0,0,1,.832-.911A.572.572,0,0,0,30.4,23.7a1.511,1.511,0,0,1,0-.294,1.4,1.4,0,0,0-.187-.827,1.508,1.508,0,0,1-.191-.973c.068-.478.146-1.226.228-2.226a3.417,3.417,0,0,0-.285-1.622,4.942,4.942,0,0,0-1.028-1.554,5.436,5.436,0,0,0-1.595-1.116,3.935,3.935,0,0,0-3.463.011,5.388,5.388,0,0,0-1.57,1.1,4.987,4.987,0,0,0-1.034,1.581A3.386,3.386,0,0,0,21,19.382c.089,1,.166,1.752.228,2.224a1.492,1.492,0,0,1-.191.973,1.4,1.4,0,0,0-.187.827,1.508,1.508,0,0,1,0,.289.572.572,0,0,0,.342.588,1.474,1.474,0,0,1,.832.911,4.1,4.1,0,0,0,.595,1.176,4.445,4.445,0,0,1,1.242,2.588,1.612,1.612,0,0,1,.011.187,5.942,5.942,0,0,1-.75,2.864,5.24,5.24,0,0,1-2.23,2.185,25.746,25.746,0,0,1-2.7,1.121q-1.57.572-3.114,1.217a4.306,4.306,0,0,0-1.3.731,1.859,1.859,0,0,0-.362.684.472.472,0,0,1-.036.112H24.173V33.683a1.454,1.454,0,1,1,2.9,0Z" fill="#fff"/>
</svg>
