<svg id="ziliaozhongxin" xmlns="http://www.w3.org/2000/svg" width="21.286" height="17.136" viewBox="0 0 21.286 17.136">
  <path id="路径_27" data-name="路径 27" d="M451.578,375.255m.745,0h9.153a.659.659,0,0,1,.745.745h0a.659.659,0,0,1-.745.745h-9.153a.659.659,0,0,1-.745-.745h0A.659.659,0,0,1,452.323,375.255Z" transform="translate(-444.021 -368.975)" fill="#728dbc"/>
  <path id="路径_28" data-name="路径 28" d="M229.714,376m-.745,0a.745.745,0,1,0,.745-.745A.745.745,0,0,0,228.969,376Z" transform="translate(-225.138 -368.975)" fill="#728dbc"/>
  <path id="路径_29" data-name="路径 29" d="M451.578,623.3m.745,0h7.344a.659.659,0,0,1,.745.745h0a.658.658,0,0,1-.745.745h-7.344a.658.658,0,0,1-.745-.745h0A.659.659,0,0,1,452.323,623.3Z" transform="translate(-444.021 -612.874)" fill="#728dbc"/>
  <path id="路径_30" data-name="路径 30" d="M229.714,624.049m-.745,0a.745.745,0,1,0,.745-.745A.745.745,0,0,0,228.969,624.049Z" transform="translate(-225.138 -612.874)" fill="#728dbc"/>
  <path id="路径_31" data-name="路径 31" d="M2.022,1.49a.532.532,0,0,0-.532.532V15.113a.532.532,0,0,0,.532.532H19.264a.532.532,0,0,0,.532-.532V4.161a.532.532,0,0,0-.532-.532H11.493A3.512,3.512,0,0,1,8.984,2.574L8.079,1.65a.532.532,0,0,0-.38-.16Zm0-1.49H7.7A2.022,2.022,0,0,1,9.143.607l.905.924a2.022,2.022,0,0,0,1.445.607h7.771a2.022,2.022,0,0,1,2.022,2.022V15.113a2.022,2.022,0,0,1-2.022,2.022H2.022A2.022,2.022,0,0,1,0,15.113V2.022A2.022,2.022,0,0,1,2.022,0Z" fill="#728dbc"/>
</svg>
