<svg id="ziyuanguanli" xmlns="http://www.w3.org/2000/svg" width="20.317" height="20.317" viewBox="0 0 20.317 20.317">
  <path id="路径_23" data-name="路径 23" d="M70.385,140.385v5.563h5.563v-5.563ZM69.692,139H76.64a.692.692,0,0,1,.692.692v6.948a.692.692,0,0,1-.692.692H69.692A.692.692,0,0,1,69,146.64v-6.948A.692.692,0,0,1,69.692,139Z" transform="translate(-69 -137.564)" fill="#728dbc"/>
  <path id="路径_24" data-name="路径 24" d="M70.385,90.145v5.563h5.563V90.145Zm-.692-1.385H76.64a.692.692,0,0,1,.692.692V96.4a.692.692,0,0,1-.692.692H69.692A.692.692,0,0,1,69,96.4V89.453A.692.692,0,0,1,69.692,88.76ZM83.715,78.447l-3.93,3.93,3.93,3.93,3.93-3.93Zm.49-1.469,4.909,4.909a.692.692,0,0,1,0,.979L84.2,87.776a.692.692,0,0,1-.979,0l-4.909-4.909a.692.692,0,0,1,0-.979l4.909-4.909A.692.692,0,0,1,84.2,76.979Z" transform="translate(-69 -76.776)" fill="#728dbc"/>
  <path id="路径_25" data-name="路径 25" d="M528.385,597.385v5.563H533.9v-5.563ZM527.692,596h6.9a.692.692,0,0,1,.692.692v6.948a.692.692,0,0,1-.692.692h-6.9a.692.692,0,0,1-.692-.692v-6.948A.692.692,0,0,1,527.692,596Z" transform="translate(-516.429 -584.016)" fill="#728dbc"/>
</svg>
